<?xml version="1.0" standalone="no"?>
<!DOCTYPE svg PUBLIC "-//W3C//DTD SVG 20010904//EN"
 "http://www.w3.org/TR/2001/REC-SVG-20010904/DTD/svg10.dtd">
<svg version="1.0" xmlns="http://www.w3.org/2000/svg"
 width="1280.000000pt" height="883.000000pt" viewBox="0 0 1280.000000 883.000000"
 preserveAspectRatio="xMidYMid meet">
<g transform="translate(0.000000,883.000000) scale(0.100000,-0.100000)"
fill="#000000" stroke="none">
<path d="M8491 8462 c-47 -74 -84 -163 -140 -342 -142 -447 -446 -1044 -802
-1570 -115 -171 -184 -258 -195 -247 -3 3 28 72 69 155 83 168 139 319 187
502 62 242 71 301 77 530 5 200 4 221 -17 297 -12 45 -30 89 -39 97 -16 15
-19 15 -33 -1 -27 -31 -56 -125 -92 -300 -43 -203 -102 -424 -158 -588 -186
-548 -421 -1102 -526 -1240 -37 -49 -39 -50 -99 -55 l-60 -5 -349 -310 c-191
-170 -382 -335 -424 -366 -102 -76 -271 -244 -304 -301 -31 -53 -93 -197 -106
-243 -4 -16 -11 -42 -14 -57 -9 -38 -26 -35 -55 8 -38 55 -127 142 -169 163
-20 10 -57 25 -82 32 -65 18 -70 24 -64 73 8 56 -17 112 -87 193 -103 120
-185 174 -284 188 -27 4 -55 12 -62 17 -6 5 -19 41 -28 81 -9 40 -37 113 -61
163 -94 198 -231 251 -418 161 -39 -19 -104 -62 -144 -96 -41 -35 -76 -60 -80
-57 -3 3 11 59 31 123 48 154 68 258 69 363 1 153 -30 242 -99 283 -41 24
-224 28 -265 6 -45 -24 -140 -151 -412 -551 -69 -103 -131 -190 -136 -193 -16
-10 -11 24 20 140 37 136 55 308 55 530 0 146 -3 181 -23 248 -29 102 -49 139
-120 229 -80 100 -138 138 -210 138 -52 0 -58 -3 -96 -43 -63 -65 -143 -311
-297 -909 -21 -82 -28 -31 -28 195 1 543 -103 891 -321 1073 -128 107 -202
131 -246 81 -13 -15 -25 -42 -28 -60 -2 -17 -9 -225 -15 -461 -9 -387 -17
-486 -35 -430 -3 11 -23 110 -46 221 -91 456 -222 858 -349 1073 -64 107 -216
259 -309 309 -52 28 -84 2 -96 -76 -4 -26 9 -175 33 -380 68 -581 82 -713 79
-756 -3 -38 -8 -25 -56 123 -94 289 -221 566 -329 719 -95 134 -212 241 -264
241 -37 0 -40 -17 -35 -235 5 -223 54 -555 169 -1152 21 -107 7 -109 -48 -7
-122 227 -213 368 -295 458 -54 58 -103 91 -120 81 -13 -8 -13 -64 -1 -157 6
-40 15 -138 21 -218 43 -561 188 -1138 385 -1530 183 -365 465 -679 737 -821
l78 -40 41 -87 c35 -73 57 -102 133 -178 50 -50 123 -112 162 -136 59 -38 72
-52 82 -85 7 -22 22 -53 34 -68 24 -31 122 -80 178 -90 29 -5 41 -13 50 -34
31 -76 133 -132 305 -166 131 -26 163 -42 395 -197 327 -219 720 -518 728
-554 4 -17 -19 -26 -166 -64 -193 -48 -337 -71 -522 -81 -96 -5 -220 -19 -275
-30 -164 -33 -327 -107 -447 -201 -20 -16 -61 -37 -90 -47 -79 -27 -172 -77
-260 -138 -174 -122 -230 -243 -183 -400 24 -79 75 -134 75 -79 0 39 25 51
104 49 112 -4 407 -33 451 -44 92 -24 223 -69 265 -92 72 -40 330 -106 495
-127 103 -13 371 -37 500 -45 203 -13 424 -35 492 -49 102 -22 616 -204 1169
-414 433 -165 819 -245 1363 -283 214 -15 857 -6 1081 15 206 20 424 47 694
86 153 22 245 30 347 30 77 0 139 3 139 7 0 3 -8 15 -17 25 -15 17 -15 20 -3
28 8 6 20 10 26 10 6 0 89 -50 184 -111 l174 -110 90 -10 c49 -6 177 -9 285
-7 l196 3 186 166 c102 91 196 173 210 182 36 24 172 15 279 -17 47 -15 128
-34 180 -42 52 -9 127 -25 165 -37 57 -16 103 -21 240 -23 149 -2 178 -5 235
-25 57 -21 84 -24 220 -25 141 0 163 -3 240 -28 64 -21 112 -29 195 -33 72 -4
139 -14 194 -29 108 -31 137 -30 206 6 48 25 69 30 134 31 91 0 137 15 165 52
18 24 19 32 8 70 -11 41 -10 43 19 67 34 29 37 59 9 85 -27 25 -25 37 10 63
57 43 30 89 -87 149 -43 22 -120 55 -170 73 -51 18 -93 37 -93 42 0 6 18 30
40 56 48 54 58 86 39 121 -20 35 -99 76 -184 97 -38 9 -74 20 -79 25 -6 6 -1
21 13 39 59 81 -9 132 -229 172 l-75 13 3 35 c10 120 7 142 -22 166 -33 29
-67 30 -172 4 -120 -30 -505 -78 -724 -91 -124 -7 -337 -9 -585 -5 -435 6
-636 18 -687 39 -19 8 -122 40 -229 71 -107 31 -204 61 -216 66 -40 16 -28 46
35 89 139 95 163 165 80 235 l-41 33 26 44 c14 24 31 64 37 89 8 29 23 54 43
71 18 15 41 49 52 80 14 36 29 57 49 68 59 33 90 67 127 145 22 44 39 88 39
98 0 9 13 24 29 32 18 10 42 40 63 78 26 47 44 68 72 81 28 13 43 31 62 70 13
29 24 58 24 66 0 33 42 81 81 93 53 15 69 47 69 138 0 59 3 72 18 76 36 11 48
22 69 67 13 26 35 52 50 61 15 8 41 28 58 45 24 26 30 41 32 87 1 42 8 61 27
85 31 36 48 94 51 174 4 117 24 197 60 236 54 60 83 177 56 227 -10 18 -7 24
16 39 45 27 61 53 88 141 l26 83 -23 41 -23 41 25 15 c53 34 119 110 126 147
7 40 -6 61 -63 96 -18 11 -33 24 -33 27 0 4 20 38 45 77 25 38 45 77 45 86 0
19 -49 64 -78 73 -21 7 -57 80 -47 96 3 5 13 10 21 10 8 0 51 12 95 27 83 27
149 74 149 106 0 22 -53 81 -96 107 -19 12 -34 26 -34 31 0 6 23 37 50 70 94
113 104 165 44 223 -34 33 -38 56 -10 56 19 0 90 95 120 160 49 105 30 179
-63 245 -25 17 -46 36 -48 42 -2 6 24 24 59 41 83 41 90 47 126 118 64 126 75
221 30 245 -38 20 -127 4 -228 -41 -127 -57 -488 -179 -548 -187 -37 -4 -51
-2 -62 12 -23 28 -1 45 108 81 176 57 336 141 472 247 72 56 370 338 370 350
0 31 -236 -68 -840 -353 -305 -144 -568 -267 -583 -272 -46 -17 -54 3 -24 54
50 86 103 139 179 180 169 92 348 240 660 549 213 211 217 215 263 311 35 71
46 104 41 123 -4 14 -13 25 -21 25 -9 0 -50 -33 -93 -74 -177 -169 -1654
-1166 -1727 -1166 -15 0 -27 25 -19 43 3 6 38 37 77 68 177 139 479 436 701
690 60 68 152 173 205 232 104 118 141 182 167 292 26 112 -5 167 -63 113 -14
-12 -71 -81 -126 -152 -108 -139 -298 -335 -492 -508 -253 -225 -765 -628
-798 -628 -5 0 46 57 113 128 153 159 302 357 450 599 217 354 338 622 371
816 11 67 11 79 -2 92 -13 13 -20 12 -57 -16 -59 -43 -169 -182 -204 -259 -56
-121 -346 -531 -576 -815 -118 -146 -340 -403 -366 -424 -35 -29 -26 1 33 106
176 315 307 719 370 1149 8 55 7 91 -4 163 -26 159 -59 189 -114 103z"/>
</g>
</svg>
