<?xml version="1.0" standalone="no"?>
<!DOCTYPE svg PUBLIC "-//W3C//DTD SVG 20010904//EN"
 "http://www.w3.org/TR/2001/REC-SVG-20010904/DTD/svg10.dtd">
<svg version="1.0" xmlns="http://www.w3.org/2000/svg"
 width="1204.000000pt" height="1280.000000pt" viewBox="0 0 1204.000000 1280.000000"
 preserveAspectRatio="xMidYMid meet">
<metadata>
Created by potrace 1.15, written by Peter Selinger 2001-2017
</metadata>
<g transform="translate(0.000000,1280.000000) scale(0.100000,-0.100000)"
fill="#000000" stroke="none">
<path d="M10909 12772 c-65 -34 -151 -130 -287 -322 -326 -460 -715 -947 -834
-1045 -34 -27 -116 -110 -182 -184 -67 -73 -160 -168 -207 -210 -47 -42 -149
-132 -226 -201 -227 -204 -1158 -981 -1473 -1230 -101 -80 -221 -180 -267
-224 l-83 -78 0 38 c0 22 5 82 11 134 13 118 13 348 0 415 -16 81 -50 162 -70
168 -15 3 -19 19 -24 88 -4 46 -7 107 -7 136 0 56 -14 79 -56 89 -62 16 -84
-33 -269 -586 -238 -708 -341 -934 -541 -1188 -108 -136 -373 -398 -534 -526
-145 -116 -359 -267 -375 -267 -5 1 -14 13 -19 29 -5 15 -36 62 -68 104 -57
73 -65 98 -33 98 8 0 18 12 21 26 8 32 -13 80 -59 131 -59 66 -127 153 -127
162 0 5 14 14 30 20 25 8 30 15 30 44 0 47 -40 120 -110 202 -73 86 -91 116
-72 123 7 2 25 14 38 26 l25 21 -51 119 c-50 117 -50 119 -30 133 92 65 -139
426 -386 602 -99 70 -269 155 -399 199 -103 35 -318 91 -355 93 -23 1 -23 2 5
10 17 4 89 19 160 33 345 67 525 180 525 331 0 58 -24 82 -125 124 -108 46
-198 61 -348 61 -153 0 -241 -12 -582 -79 -285 -56 -345 -66 -345 -54 0 4 85
37 189 71 204 69 396 159 546 256 107 70 281 239 313 307 22 45 30 131 14 156
-15 23 -137 55 -232 60 -113 7 -277 -16 -395 -54 -169 -54 -477 -180 -668
-273 l-62 -31 40 37 c22 20 96 79 165 132 455 348 596 495 675 705 44 117 32
147 -58 155 -59 4 -212 -31 -316 -73 -198 -81 -322 -157 -661 -410 -253 -187
-390 -281 -390 -266 0 26 134 196 330 421 218 251 370 466 370 526 0 24 -41
70 -71 79 -27 9 -124 -13 -184 -41 -74 -34 -227 -126 -287 -171 -172 -130
-508 -434 -508 -459 0 -7 -28 -34 -62 -61 -35 -28 -145 -129 -245 -225 -187
-180 -308 -280 -394 -324 l-49 -24 -9 22 c-5 13 -17 49 -27 82 -23 72 -42 82
-102 53 -72 -35 -167 -205 -218 -389 -31 -114 -43 -326 -25 -434 26 -145 146
-418 264 -596 56 -85 121 -161 256 -303 163 -171 202 -219 385 -475 280 -393
389 -556 434 -653 98 -206 223 -548 297 -811 88 -315 195 -797 195 -881 0 -23
6 -58 14 -76 14 -34 51 -237 44 -244 -1 -2 -28 3 -58 12 -70 19 -218 11 -350
-17 -52 -12 -137 -30 -188 -41 l-93 -20 -17 21 c-16 18 -22 19 -87 10 -171
-24 -423 -141 -537 -249 -74 -69 -220 -276 -249 -350 -27 -73 -40 -179 -29
-244 5 -32 12 -62 15 -68 10 -15 -13 -45 -126 -165 -113 -120 -173 -206 -190
-268 -6 -23 -9 -73 -7 -113 5 -70 6 -73 82 -181 80 -114 168 -207 223 -235
l31 -16 4 93 c5 128 41 200 152 311 75 74 337 270 415 310 69 35 207 -1 273
-72 36 -39 201 -292 288 -443 182 -317 402 -813 515 -1160 35 -108 45 -120 73
-86 11 14 24 26 30 26 10 0 127 -209 120 -215 -2 -1 -77 -23 -168 -49 -243
-68 -372 -142 -425 -240 -19 -35 -19 -35 3 -59 l22 -23 -55 -72 c-71 -95 -130
-196 -177 -305 -38 -88 -90 -255 -103 -332 -9 -57 -55 -122 -143 -207 -115
-109 -279 -186 -372 -173 -19 3 -84 12 -144 21 -126 17 -196 12 -252 -20 -55
-30 -52 -52 6 -48 l45 3 -67 -68 c-69 -70 -88 -103 -88 -154 0 -42 18 -36 75
26 46 49 55 55 92 55 45 0 78 -21 105 -67 17 -29 16 -31 -6 -64 -35 -51 -126
-94 -196 -93 -90 1 -138 31 -300 190 -80 77 -155 146 -167 153 -12 6 -46 12
-77 12 -42 1 -62 -4 -86 -21 -39 -28 -27 -40 45 -40 67 0 93 -16 128 -75 l29
-49 -18 -58 c-14 -47 -15 -63 -5 -84 17 -37 6 -45 -44 -29 -75 22 -135 64
-245 170 -58 55 -127 116 -154 134 l-49 34 -99 -11 c-54 -7 -115 -19 -136 -29
l-37 -16 90 -13 c119 -17 158 -30 194 -68 l31 -32 -30 -22 c-61 -45 -70 -97
-34 -182 13 -30 33 -45 145 -105 72 -38 135 -75 141 -82 7 -8 1 -16 -20 -27
-25 -13 -44 -14 -111 -6 -87 11 -101 8 -140 -34 -22 -23 -64 -126 -56 -135 2
-2 33 13 69 33 35 20 72 36 81 36 32 0 74 -40 87 -81 14 -49 36 -62 103 -62
62 0 120 24 165 68 49 48 119 76 204 82 55 4 79 2 104 -11 41 -21 48 -51 32
-137 -24 -138 -1 -284 60 -370 38 -53 4 -112 -103 -178 -34 -21 -37 -25 -24
-38 13 -14 26 -12 109 15 51 17 124 33 161 36 114 9 179 48 331 196 72 70 150
140 173 157 23 16 76 66 117 110 121 128 274 196 475 209 48 3 104 9 126 14
115 26 109 27 165 -44 31 -37 62 -66 76 -69 28 -5 62 28 94 93 25 50 36 60 67
60 24 0 56 -35 116 -130 58 -90 122 -129 166 -101 9 6 17 43 24 104 7 65 15
98 24 101 14 6 69 -46 167 -157 55 -64 84 -86 132 -101 35 -11 56 48 53 147
-1 45 -3 109 -3 142 l-1 60 35 -1 c19 -1 61 -5 92 -9 46 -6 62 -4 84 10 34 22
68 15 183 -36 50 -22 113 -43 140 -46 66 -8 78 13 62 98 -7 33 -9 63 -6 69 12
19 76 22 140 6 35 -9 66 -16 69 -16 2 0 20 22 39 48 l34 48 93 17 c51 9 94 18
95 19 1 2 11 37 21 78 l20 75 60 7 c154 17 312 126 394 272 18 31 36 56 41 56
14 0 36 -42 48 -95 26 -110 31 -121 58 -137 16 -9 55 -21 88 -28 33 -7 73 -19
89 -27 28 -15 108 -13 149 3 23 9 92 113 81 123 -5 4 -43 36 -84 71 l-74 63 2
161 c1 89 5 196 9 240 l6 78 70 -5 c65 -4 86 -13 291 -116 230 -115 345 -159
493 -187 157 -29 403 -21 451 14 l22 17 -55 82 c-30 45 -55 85 -55 87 0 2 93
-27 208 -65 321 -108 552 -159 716 -159 72 0 257 28 273 42 9 8 -12 34 -85
103 -53 51 -94 96 -90 100 3 4 71 -18 150 -49 323 -124 615 -181 813 -160 l80
9 -2 38 c-1 20 0 37 3 37 3 0 52 -10 107 -22 138 -29 434 -32 545 -5 108 26
158 44 253 93 48 24 106 48 130 53 54 12 241 43 289 47 104 9 200 43 247 87
41 38 67 113 58 166 -5 33 -12 42 -37 50 -45 16 -93 14 -204 -9 -105 -22 -297
-25 -291 -5 2 5 53 36 112 67 93 49 185 118 185 138 0 3 -36 16 -80 29 -44 13
-88 29 -96 36 -15 10 -12 14 19 33 46 29 54 66 20 100 -17 17 -31 22 -46 18
-88 -25 -402 -76 -612 -101 -549 -63 -1120 -76 -1535 -35 -150 15 -346 45
-517 79 -82 16 -168 32 -192 36 -26 4 -54 17 -69 32 -20 21 -24 31 -19 65 3
23 19 67 35 98 17 31 54 133 82 226 l52 169 -16 51 c-16 51 -16 54 9 127 23
70 48 202 42 229 -1 9 48 21 156 39 86 14 158 28 160 30 2 2 20 56 41 119 37
110 100 248 187 411 50 92 69 194 52 285 l-10 58 142 211 c81 119 140 216 137
225 -2 8 -11 23 -20 32 -13 16 -8 25 60 100 97 107 116 145 127 256 12 109 84
388 118 457 14 27 53 91 86 140 34 50 76 119 93 154 32 63 32 64 17 103 -15
39 -15 39 13 70 16 16 63 57 106 89 149 114 183 192 143 327 -15 49 -15 54 2
76 10 13 56 52 102 87 112 85 136 122 137 213 1 39 2 77 2 83 1 7 47 60 102
118 129 136 151 178 130 256 -10 36 -8 45 22 101 21 40 75 106 149 184 140
146 194 216 220 283 28 76 27 78 -41 92 -89 17 -78 34 60 94 206 89 352 170
437 242 64 54 133 156 133 198 0 39 22 71 63 91 94 48 237 198 237 250 0 11
-13 33 -30 49 l-29 28 42 32 c23 17 90 63 148 103 197 133 302 239 368 369 26
53 28 116 3 141 -10 10 -58 29 -108 42 -49 13 -92 25 -96 27 -24 13 88 112
257 228 224 155 326 245 399 355 20 30 36 65 36 78 0 22 -3 24 -37 18 -251
-44 -517 -153 -924 -378 -356 -197 -519 -274 -767 -363 -120 -42 -173 -51
-158 -26 9 14 264 167 601 361 701 404 980 599 1275 891 236 233 280 301 245
369 -18 35 -20 36 -118 10 -100 -25 -224 -87 -372 -187 -66 -44 -170 -109
-230 -144 -61 -34 -147 -87 -192 -116 -385 -248 -964 -518 -1604 -746 -186
-67 -209 -74 -209 -59 0 19 323 210 620 367 436 231 518 280 1163 706 283 187
454 310 602 434 225 188 445 420 487 514 34 74 5 151 -56 151 -24 0 -206 -108
-375 -223 -98 -66 -303 -219 -771 -573 -323 -244 -565 -401 -800 -519 -119
-59 -330 -181 -552 -317 -127 -77 -148 -87 -148 -68 0 5 98 105 218 222 371
363 505 499 602 613 51 61 178 203 282 316 280 306 381 438 473 616 60 115
116 292 106 330 -10 38 -28 39 -92 5z"/>
</g>
</svg>
